HIERARCHY
ROOT Hips
{
	OFFSET 0.000000 0.000000 0.000000
	CHANNELS 6 Xposition Yposition Zposition Zrotation Yrotation Xrotation 
	JOINT LHipJoint
	{
		OFFSET 0.000000 0.000000 0.000000
		CHANNELS 3 Zrotation Yrotation Xrotation
		JOINT LeftUpLeg
		{
			OFFSET 1.363060 -1.794630 0.839290
			CHANNELS 3 Zrotation Yrotation Xrotation
			JOINT LeftLeg
			{
				OFFSET 2.448110 -6.726130 0.000000
				CHANNELS 3 Zrotation Yrotation Xrotation
				JOINT LeftFoot
				{
					OFFSET 2.562200 -7.039590 0.000000
					CHANNELS 3 Zrotation Yrotation Xrotation
					JOINT LeftToeBase
					{
						OFFSET 0.157640 -0.433110 2.322550
						CHANNELS 3 Zrotation Yrotation Xrotation
						End Site
						{
							OFFSET 0.000000 0.000000 0.000000
						}
					}
				}
			}
		}
	}
	JOINT RHipJoint
	{
		OFFSET 0.000000 0.000000 0.000000
		CHANNELS 3 Zrotation Yrotation Xrotation
		JOINT RightUpLeg
		{
			OFFSET -1.305520 -1.794630 0.839290
			CHANNELS 3 Zrotation Yrotation Xrotation
			JOINT RightLeg
			{
				OFFSET -2.542530 -6.985550 0.000000
				CHANNELS 3 Zrotation Yrotation Xrotation
				JOINT RightFoot
				{
					OFFSET -2.568260 -7.056230 0.000000
					CHANNELS 3 Zrotation Yrotation Xrotation
					JOINT RightToeBase
					{
						OFFSET -0.164730 -0.452590 2.363150
						CHANNELS 3 Zrotation Yrotation Xrotation
						End Site
						{
							OFFSET 0.000000 0.000000 0.000000
						}
					}
				}
			}
		}
	}
}
MOTION
Frames: 22
Frame Time: 0.008333
5.235695 17.380284 1.309789 -176.967320 -60.090196 -175.035031 -12.254949 3.336474 -2.839527 -7.062049 34.882615 -10.411384 -3.185184 -0.816188 -1.513972 1.404196 11.075079 -0.853842 1.214200 -0.000000 -26.892000 8.552673 -1.349683 5.095838 3.582987 12.139083 -10.923295 3.343194 1.380013 -0.315617 1.494990 8.970379 5.355216 1.320200 -0.000001 -40.570800
5.248209 17.376918 1.310910 -177.083808 -59.802761 -174.933562 -12.231656 3.305009 -2.908585 -7.097284 34.922064 -10.490936 -3.184961 -0.798391 -1.194058 1.438186 11.284332 -1.080087 1.192700 -0.000000 -26.751800 8.557994 -1.330753 5.103535 3.500448 12.368540 -11.027702 3.332011 1.355202 -0.166125 1.499317 9.058346 5.298056 1.335900 0.000000 -40.638600
5.261123 17.374871 1.311161 -177.167175 -59.575214 -174.842272 -12.206152 3.271652 -2.962586 -7.137534 34.921034 -10.604842 -3.183021 -0.781376 -0.888091 1.470477 11.479324 -1.277951 1.174700 0.000000 -26.609700 8.564042 -1.313893 5.109325 3.439273 12.556023 -11.141201 3.323073 1.333960 -0.046740 1.503131 9.129319 5.269818 1.350800 0.000000 -40.669900
5.274431 17.374160 1.310706 -177.218154 -59.411604 -174.763914 -12.179025 3.236982 -3.001295 -7.179546 34.874439 -10.740834 -3.178116 -0.765659 -0.607292 1.501294 11.663452 -1.441764 1.162300 -0.000001 -26.465300 8.571040 -1.298933 5.111395 3.399546 12.698250 -11.254110 3.316323 1.316694 0.036434 1.506277 9.182182 5.271136 1.364900 -0.000000 -40.653299
5.288211 17.374692 1.309585 -177.240781 -59.312894 -174.698039 -12.150889 3.201558 -3.025197 -7.221920 34.782395 -10.892055 -3.170047 -0.751469 -0.357597 1.530412 11.835659 -1.570852 1.155900 -0.000000 -26.316701 8.578965 -1.285316 5.108561 3.380420 12.793818 -11.362436 3.311655 1.303434 0.083087 1.508835 9.218136 5.300996 1.378400 0.000001 -40.598600
5.302353 17.376289 1.307971 -177.237235 -59.277976 -174.644529 -12.122329 3.166252 -3.035398 -7.263117 34.646093 -11.049596 -3.158690 -0.739042 -0.145212 1.557738 11.995763 -1.665312 1.155700 0.000000 -26.163800 8.588022 -1.272375 5.099364 3.379978 12.842265 -11.461754 3.308816 1.294016 0.095661 1.510838 9.238831 5.356079 1.391300 0.000000 -40.516300
5.317094 17.378706 1.305944 -177.214332 -59.303846 -174.603280 -12.093677 3.131491 -3.035109 -7.300897 34.472476 -11.205741 -3.144663 -0.728082 0.027903 1.582534 12.138846 -1.726941 1.161200 0.000001 -26.007300 8.598430 -1.258733 5.082431 3.395423 12.847377 -11.547349 3.307313 1.288170 0.076563 1.511999 9.243257 5.431424 1.402600 0.000001 -40.410099
5.332340 17.381670 1.303615 -177.174743 -59.385754 -174.572672 -12.065409 3.097902 -3.027249 -7.333851 34.269888 -11.354117 -3.128855 -0.718593 0.159580 1.604085 12.260277 -1.758204 1.171400 -0.000000 -25.850100 8.610228 -1.243689 5.057340 3.423722 12.814213 -11.617116 3.306732 1.285566 0.030459 1.512140 9.231620 5.520893 1.411800 -0.000000 -40.284300
5.348030 17.384940 1.301072 -177.123021 -59.517302 -174.551003 -12.037795 3.066058 -3.014106 -7.362868 34.047801 -11.491870 -3.112334 -0.710667 0.249403 1.621701 12.355613 -1.762634 1.184900 0.000000 -25.695300 8.623620 -1.226860 5.024069 3.461788 12.745078 -11.674651 3.306682 1.285318 -0.032444 1.511501 9.208563 5.617950 1.419000 -0.000001 -40.158700
5.364077 17.388231 1.298367 -177.063058 -59.691377 -174.534909 -12.011079 3.036039 -2.998820 -7.388517 33.818487 -11.618883 -3.096636 -0.704261 0.299519 1.634300 12.417786 -1.743706 1.200099 0.000000 -25.547600 8.638394 -1.208132 4.983889 3.505952 12.648214 -11.722760 3.306714 1.286943 -0.106538 1.509884 9.173902 5.716579 1.423400 0.000000 -40.039400
5.380328 17.391379 1.295457 -176.998185 -59.900077 -174.521603 -11.985554 3.007856 -2.983928 -7.411888 33.594794 -11.736345 -3.083258 -0.699498 0.312783 1.640878 12.440558 -1.704841 1.215500 -0.000000 -25.412500 8.654221 -1.188021 4.938620 3.553553 12.530462 -11.765561 3.306528 1.289865 -0.185566 1.507255 9.129009 5.811268 1.424900 0.000000 -39.932400
5.396567 17.394193 1.292336 -176.931119 -60.135592 -174.507635 -11.961470 2.981432 -2.970882 -7.435322 33.387883 -11.847992 -3.073537 -0.696660 0.292390 1.640684 12.419458 -1.648940 1.229500 0.000000 -25.295200 8.670669 -1.167422 4.890800 3.602116 12.397888 -11.809941 3.305986 1.293538 -0.262851 1.503793 9.077097 5.896891 1.423500 0.000000 -39.838400
5.412462 17.396623 1.288930 -176.862967 -60.390024 -174.489638 -11.939172 2.956738 -2.960259 -7.460844 33.206899 -11.957972 -3.068556 -0.696048 0.241851 1.633212 12.351530 -1.578437 1.241000 0.000000 -25.200600 8.687072 -1.147572 4.843518 3.649969 12.257024 -11.861448 3.305109 1.297697 -0.334812 1.499647 9.020165 5.970729 1.419500 0.000000 -39.758600
5.427813 17.398613 1.285181 -176.796548 -60.655539 -174.464596 -11.918842 2.933822 -2.951301 -7.491703 33.058104 -12.072639 -3.069008 -0.697839 0.165915 1.618511 12.237241 -1.495783 1.249300 0.000000 -25.130700 8.702785 -1.129586 4.800051 3.695943 12.112000 -11.927807 3.304045 1.302066 -0.397198 1.495153 8.961499 6.031230 1.413500 -0.000000 -39.693600
5.442318 17.400148 1.281006 -176.732070 -60.925895 -174.431637 -11.900508 2.912349 -2.944671 -7.527426 32.944797 -12.191202 -3.074942 -0.702126 0.065188 1.596845 12.078594 -1.401603 1.254200 0.000000 -25.091500 8.717413 -1.113755 4.762035 3.739479 11.968997 -12.006840 3.302962 1.307020 -0.454246 1.490266 8.900883 6.077290 1.405301 0.000000 -39.627000
5.455601 17.401333 1.276349 -176.668598 -61.194686 -174.388112 -11.884385 2.892770 -2.937175 -7.572116 32.865556 -12.321596 -3.086192 -0.709021 -0.054738 1.569315 11.882363 -1.298236 1.255900 0.000000 -25.079500 8.730150 -1.101412 4.732783 3.780706 11.829241 -12.106826 3.302324 1.312466 -0.502540 1.485597 8.842738 6.111175 1.396300 -0.000000 -39.564800
5.467545 17.402215 1.271170 -176.608141 -61.458951 -174.333201 -11.870194 2.874829 -2.927203 -7.626709 32.815485 -12.465067 -3.101952 -0.718562 -0.191231 1.537079 11.656070 -1.186978 1.254800 -0.000000 -25.093100 8.740770 -1.092948 4.713496 3.819749 11.694118 -12.227800 3.302362 1.318626 -0.544889 1.481336 8.788595 6.133785 1.386900 0.000001 -39.494200
5.477845 17.402931 1.265467 -176.548605 -61.716659 -174.266364 -11.857857 2.858532 -2.911962 -7.692493 32.786354 -12.624072 -3.121093 -0.730885 -0.341025 1.501784 11.410420 -1.069604 1.251900 0.000000 -25.127101 8.748794 -1.089331 4.705738 3.857102 11.565012 -12.370077 3.303372 1.325810 -0.584410 1.477591 8.738187 6.148567 1.377500 0.000000 -39.414400
5.486510 17.403444 1.259296 -176.489058 -61.968866 -174.194354 -11.847079 2.843243 -2.892755 -7.763728 32.772379 -12.787106 -3.142067 -0.745743 -0.504586 1.464500 11.153217 -0.946133 1.248000 -0.000000 -25.182400 8.754818 -1.090011 4.706746 3.894385 11.439973 -12.520564 3.305451 1.334285 -0.629606 1.474285 8.691794 6.157279 1.368300 -0.000000 -39.310300
5.493452 17.403930 1.252698 -176.429573 -62.216022 -174.114576 -11.837591 2.829185 -2.864951 -7.844426 32.760392 -12.961403 -3.163582 -0.763342 -0.676143 1.427269 10.897664 -0.820236 1.244100 0.000000 -25.246600 8.758283 -1.096238 4.718718 3.931260 11.319907 -12.684623 3.308758 1.344162 -0.679666 1.471537 8.648772 6.163327 1.359600 -0.000000 -39.189500
5.498674 17.404439 1.245777 -176.370408 -62.459482 -174.028882 -11.829142 2.816312 -2.827192 -7.933046 32.740035 -13.143432 -3.184195 -0.783573 -0.853564 1.391542 10.653883 -0.693635 1.241200 -0.000000 -25.312299 8.759394 -1.108060 4.740574 3.967974 11.203677 -12.857292 3.313267 1.355562 -0.738045 1.469277 8.608030 6.169845 1.351500 0.000000 -39.054300
5.502440 17.404881 1.238821 -176.306626 -62.701527 -173.951673 -11.821822 2.803937 -2.784112 -8.017257 32.711474 -13.314002 -3.202652 -0.805528 -1.037047 1.357556 10.424227 -0.566829 1.239400 -0.000000 -25.382100 8.759106 -1.123855 4.766791 4.007227 11.089563 -13.015811 3.318896 1.368713 -0.814725 1.467057 8.566972 6.178524 1.343300 0.000000 -38.892300
